<svg width="93" height="75" viewBox="0 0 93 75" fill="none" xmlns="http://www.w3.org/2000/svg">
<path d="M27 38.4301C27.2678 37.7093 27.4673 36.9521 27.8267 36.2797C28.1033 35.7617 28.5695 35.3406 28.9796 34.902C29.0898 34.7917 29.3003 34.7752 29.4656 34.7168C29.3962 34.87 29.3554 35.0475 29.2529 35.172C28.4814 36.1111 27.9854 37.1692 27.8994 38.3882C27.7958 39.8718 28.6511 40.8241 30.1369 40.8649C31.0716 40.8914 32.0106 40.8506 32.9442 40.8285C34.0563 40.8032 35.1078 40.9773 35.9885 41.7268C36.8372 42.451 37.213 43.3857 36.9937 44.4669C36.8118 45.3652 36.4757 46.2305 36.2222 47.1122C36.1342 47.3809 36.074 47.6579 36.0425 47.9389C36.0028 48.4349 36.1726 48.6002 36.6719 48.5429C37.2461 48.4823 37.816 48.3698 38.3913 48.3136C39.197 48.2343 40.006 48.1847 40.8162 48.1296C40.915 48.1289 41.0132 48.1442 41.1071 48.1747C41.7927 48.3544 41.6164 48.2166 41.731 48.8735C41.9007 49.8435 42.0815 50.8112 42.2821 51.7746C42.4673 52.6563 42.4397 53.4874 41.8247 54.2192C41.709 54.357 41.6461 54.5389 41.494 54.8155C41.3066 54.3945 41.0829 54.0594 41.0091 53.6935C40.7633 52.47 40.4425 52.157 38.9964 52.0402C37.9526 51.9575 36.9022 52.006 35.8606 51.8848C35.1255 51.8047 34.4365 51.4874 33.8978 50.9809C33.3591 50.4744 33 49.8062 32.8748 49.0775C32.7546 48.318 32.9596 47.6104 33.2627 46.9259C33.6 46.161 33.956 45.4027 34.2867 44.6345C34.3763 44.4052 34.4406 44.1668 34.4785 43.9235C34.6008 43.2843 34.4608 43.0054 33.8171 42.8952C32.8119 42.7221 31.7935 42.6251 30.7795 42.5039C29.804 42.3882 28.8517 42.2327 28.0989 41.5119C27.5379 40.9707 27.1664 40.3414 27.0661 39.561C27.0514 39.5022 27.0292 39.4455 27 39.3924V38.4301Z" fill="#F20089"/>
<path d="M53.6083 42.3319L48.979 39.6183C49.292 38.8269 49.5984 38.041 49.9137 37.2595C50.6246 35.496 51.7345 33.9628 52.7794 32.3955C55.5246 28.2725 58.2846 24.1576 61.0592 20.0508C61.8186 18.9298 63.1049 18.6752 64.0991 19.4346C64.4343 19.6908 64.681 20.0455 64.8045 20.4489C64.9281 20.8523 64.9223 21.2843 64.788 21.6842C64.7499 21.8012 64.7038 21.9153 64.6502 22.0259C61.9512 27.4356 59.2505 32.8441 56.5479 38.2515C55.7962 39.7527 54.6752 40.9916 53.6083 42.3319Z" fill="#F20089"/>
<path d="M43.4528 55.4767C43.3118 55.4701 43.0638 55.4767 42.8202 55.4425C42.4587 55.3962 42.2503 55.0733 42.4642 54.8099C43.5664 53.4574 43.2192 51.9882 42.8808 50.5112C42.6515 49.5248 42.4719 48.5328 42.5237 47.5121C42.592 46.1708 43.1244 45.0068 43.8463 43.9134C44.6498 42.6889 45.6308 41.6418 47.0042 41.0477C47.4038 40.8894 47.8165 40.7662 48.2375 40.6796C48.3804 40.6601 48.5256 40.6905 48.6486 40.7655C50.0558 41.5812 51.4589 42.4045 52.858 43.2356C52.9868 43.3211 53.0841 43.4465 53.1346 43.5927C53.6141 44.9881 53.4576 46.3791 52.9693 47.7238C51.8561 50.7824 49.9537 53.1852 46.981 54.6423C45.8848 55.1882 44.6774 55.4737 43.4528 55.4767ZM48.6531 43.3943C48.5781 42.7021 47.9421 42.2535 47.3502 42.5258C45.9912 43.1485 44.997 44.1306 44.544 45.5899C44.3688 46.1531 44.6058 46.6326 45.0951 46.7792C45.5845 46.9258 46.0353 46.669 46.215 46.0936C46.3974 45.4994 46.768 44.9807 47.2709 44.6155C47.5464 44.4116 47.876 44.275 48.135 44.0534C48.3466 43.8804 48.4844 43.6214 48.6531 43.3987V43.3943Z" fill="#F20089"/>
<path d="M5.5 34.1C7.1 33.9667 8.3 33.5333 9.1 32.8C9.93333 32.0667 10.35 31.0833 10.35 29.85C10.35 28.45 10.2 26.4333 9.9 23.8C9.56667 20.6667 9.4 18.3833 9.4 16.95C9.4 14.35 10.1667 12.3333 11.7 10.9C13.2667 9.43333 15.3333 8.7 17.9 8.7H21.35V14.6H19.25C17.1833 14.6 16.15 15.5833 16.15 17.55C16.15 18.4833 16.2833 20.35 16.55 23.15C16.5833 23.4833 16.6667 24.4333 16.8 26C16.9333 27.5333 17 28.9 17 30.1C17 31.8667 16.5667 33.3333 15.7 34.5C14.8333 35.6667 13.5167 36.4167 11.75 36.75V36.85C13.5167 37.2167 14.8333 37.9833 15.7 39.15C16.5667 40.2833 17 41.75 17 43.55C17 44.6833 16.9333 46.0333 16.8 47.6C16.6667 49.1333 16.5833 50.1 16.55 50.5C16.2833 53.3 16.15 55.15 16.15 56.05C16.15 57.0833 16.4 57.8333 16.9 58.3C17.4 58.7667 18.1833 59 19.25 59H21.35V64.95H17.9C15.3333 64.95 13.2667 64.2167 11.7 62.75C10.1667 61.3167 9.4 59.3 9.4 56.7C9.4 55.2333 9.56667 52.9333 9.9 49.8C10.2 47.1667 10.35 45.1667 10.35 43.8C10.35 42.5667 9.93333 41.5833 9.1 40.85C8.3 40.1167 7.1 39.6833 5.5 39.55V34.1ZM87.1969 39.55C85.5969 39.6833 84.3802 40.1167 83.5469 40.85C82.7469 41.5833 82.3469 42.5667 82.3469 43.8C82.3469 45.1667 82.4969 47.1667 82.7969 49.8C83.1302 52.9333 83.2969 55.2333 83.2969 56.7C83.2969 59.3 82.5135 61.3167 80.9469 62.75C79.4135 64.2167 77.3635 64.95 74.7969 64.95H71.3469V59H73.4469C74.5135 59 75.2969 58.7667 75.7969 58.3C76.2969 57.8333 76.5469 57.0833 76.5469 56.05C76.5469 55.15 76.4135 53.3 76.1469 50.5C76.1135 50.1 76.0302 49.1333 75.8969 47.6C75.7635 46.0333 75.6969 44.6833 75.6969 43.55C75.6969 41.75 76.1302 40.2833 76.9969 39.15C77.8635 37.9833 79.1802 37.2167 80.9469 36.85V36.75C79.1802 36.4167 77.8635 35.6667 76.9969 34.5C76.1302 33.3333 75.6969 31.8667 75.6969 30.1C75.6969 28.9 75.7635 27.5333 75.8969 26C76.0302 24.4333 76.1135 23.4833 76.1469 23.15C76.4135 20.35 76.5469 18.4833 76.5469 17.55C76.5469 15.5833 75.5135 14.6 73.4469 14.6H71.3469V8.7H74.7969C77.3635 8.7 79.4135 9.43333 80.9469 10.9C82.5135 12.3333 83.2969 14.35 83.2969 16.95C83.2969 18.3833 83.1302 20.6667 82.7969 23.8C82.4969 26.4333 82.3469 28.45 82.3469 29.85C82.3469 31.0833 82.7469 32.0667 83.5469 32.8C84.3802 33.5333 85.5969 33.9667 87.1969 34.1V39.55Z" fill="#F20089"/>
</svg>
