<svg width="51" height="42" viewBox="0 0 51 42" fill="none" xmlns="http://www.w3.org/2000/svg">
<path d="M0.96 18.952C2.112 18.856 2.976 18.544 3.552 18.016C4.152 17.488 4.452 16.78 4.452 15.892C4.452 14.884 4.344 13.432 4.128 11.536C3.888 9.28 3.768 7.636 3.768 6.604C3.768 4.732 4.32 3.28 5.424 2.248C6.552 1.192 8.04 0.663998 9.888 0.663998H12.372V4.912H10.86C9.372 4.912 8.628 5.62 8.628 7.036C8.628 7.708 8.724 9.052 8.916 11.068C8.94 11.308 9 11.992 9.096 13.12C9.192 14.224 9.24 15.208 9.24 16.072C9.24 17.344 8.928 18.4 8.304 19.24C7.68 20.08 6.732 20.62 5.46 20.86V20.932C6.732 21.196 7.68 21.748 8.304 22.588C8.928 23.404 9.24 24.46 9.24 25.756C9.24 26.572 9.192 27.544 9.096 28.672C9 29.776 8.94 30.472 8.916 30.76C8.724 32.776 8.628 34.108 8.628 34.756C8.628 35.5 8.808 36.04 9.168 36.376C9.528 36.712 10.092 36.88 10.86 36.88H12.372V41.164H9.888C8.04 41.164 6.552 40.636 5.424 39.58C4.32 38.548 3.768 37.096 3.768 35.224C3.768 34.168 3.888 32.512 4.128 30.256C4.344 28.36 4.452 26.92 4.452 25.936C4.452 25.048 4.152 24.34 3.552 23.812C2.976 23.284 2.112 22.972 0.96 22.876V18.952ZM35.4773 23.596C35.4773 24.316 35.4293 24.964 35.3333 25.54H20.7533C20.8733 26.98 21.3773 28.108 22.2653 28.924C23.1533 29.74 24.2453 30.148 25.5413 30.148C27.4133 30.148 28.7453 29.344 29.5373 27.736H34.9733C34.3973 29.656 33.2933 31.24 31.6613 32.488C30.0293 33.712 28.0253 34.324 25.6493 34.324C23.7293 34.324 22.0013 33.904 20.4653 33.064C18.9533 32.2 17.7653 30.988 16.9013 29.428C16.0613 27.868 15.6413 26.068 15.6413 24.028C15.6413 21.964 16.0613 20.152 16.9013 18.592C17.7413 17.032 18.9173 15.832 20.4293 14.992C21.9413 14.152 23.6813 13.732 25.6493 13.732C27.5453 13.732 29.2373 14.14 30.7253 14.956C32.2373 15.772 33.4013 16.936 34.2173 18.448C35.0573 19.936 35.4773 21.652 35.4773 23.596ZM30.2573 22.156C30.2333 20.86 29.7653 19.828 28.8533 19.06C27.9413 18.268 26.8253 17.872 25.5053 17.872C24.2573 17.872 23.2013 18.256 22.3373 19.024C21.4973 19.768 20.9813 20.812 20.7893 22.156H30.2573ZM50.172 22.876C49.02 22.972 48.144 23.284 47.544 23.812C46.968 24.34 46.68 25.048 46.68 25.936C46.68 26.92 46.788 28.36 47.004 30.256C47.244 32.512 47.364 34.168 47.364 35.224C47.364 37.096 46.8 38.548 45.672 39.58C44.568 40.636 43.092 41.164 41.244 41.164H38.76V36.88H40.272C41.04 36.88 41.604 36.712 41.964 36.376C42.324 36.04 42.504 35.5 42.504 34.756C42.504 34.108 42.408 32.776 42.216 30.76C42.192 30.472 42.132 29.776 42.036 28.672C41.94 27.544 41.892 26.572 41.892 25.756C41.892 24.46 42.204 23.404 42.828 22.588C43.452 21.748 44.4 21.196 45.672 20.932V20.86C44.4 20.62 43.452 20.08 42.828 19.24C42.204 18.4 41.892 17.344 41.892 16.072C41.892 15.208 41.94 14.224 42.036 13.12C42.132 11.992 42.192 11.308 42.216 11.068C42.408 9.052 42.504 7.708 42.504 7.036C42.504 5.62 41.76 4.912 40.272 4.912H38.76V0.663998H41.244C43.092 0.663998 44.568 1.192 45.672 2.248C46.8 3.28 47.364 4.732 47.364 6.604C47.364 7.636 47.244 9.28 47.004 11.536C46.788 13.432 46.68 14.884 46.68 15.892C46.68 16.78 46.968 17.488 47.544 18.016C48.144 18.544 49.02 18.856 50.172 18.952V22.876Z" fill="#F20089"/>
</svg>
