<svg width="131" height="57" viewBox="0 0 131 57" fill="none" xmlns="http://www.w3.org/2000/svg">
<path d="M0.5 26.1C2.1 25.9667 3.3 25.5333 4.1 24.8C4.93333 24.0667 5.35 23.0833 5.35 21.85C5.35 20.45 5.2 18.4333 4.9 15.8C4.56667 12.6667 4.4 10.3833 4.4 8.95C4.4 6.35 5.16667 4.33333 6.7 2.9C8.26667 1.43333 10.3333 0.699997 12.9 0.699997H16.35V6.6H14.25C12.1833 6.6 11.15 7.58333 11.15 9.55C11.15 10.4833 11.2833 12.35 11.55 15.15C11.5833 15.4833 11.6667 16.4333 11.8 18C11.9333 19.5333 12 20.9 12 22.1C12 23.8667 11.5667 25.3333 10.7 26.5C9.83333 27.6667 8.51667 28.4167 6.75 28.75V28.85C8.51667 29.2167 9.83333 29.9833 10.7 31.15C11.5667 32.2833 12 33.75 12 35.55C12 36.6833 11.9333 38.0333 11.8 39.6C11.6667 41.1333 11.5833 42.1 11.55 42.5C11.2833 45.3 11.15 47.15 11.15 48.05C11.15 49.0833 11.4 49.8333 11.9 50.3C12.4 50.7667 13.1833 51 14.25 51H16.35V56.95H12.9C10.3333 56.95 8.26667 56.2167 6.7 54.75C5.16667 53.3167 4.4 51.3 4.4 48.7C4.4 47.2333 4.56667 44.9333 4.9 41.8C5.2 39.1667 5.35 37.1667 5.35 35.8C5.35 34.5667 4.93333 33.5833 4.1 32.85C3.3 32.1167 2.1 31.6833 0.5 31.55V26.1ZM48.4406 32.55C48.4406 33.55 48.374 34.45 48.2406 35.25H27.9906C28.1573 37.25 28.8573 38.8167 30.0906 39.95C31.324 41.0833 32.8406 41.65 34.6406 41.65C37.2406 41.65 39.0906 40.5333 40.1906 38.3H47.7406C46.9406 40.9667 45.4073 43.1667 43.1406 44.9C40.874 46.6 38.0906 47.45 34.7906 47.45C32.124 47.45 29.724 46.8667 27.5906 45.7C25.4906 44.5 23.8406 42.8167 22.6406 40.65C21.474 38.4833 20.8906 35.9833 20.8906 33.15C20.8906 30.2833 21.474 27.7667 22.6406 25.6C23.8073 23.4333 25.4406 21.7667 27.5406 20.6C29.6406 19.4333 32.0573 18.85 34.7906 18.85C37.424 18.85 39.774 19.4167 41.8406 20.55C43.9406 21.6833 45.5573 23.3 46.6906 25.4C47.8573 27.4667 48.4406 29.85 48.4406 32.55ZM41.1906 30.55C41.1573 28.75 40.5073 27.3167 39.2406 26.25C37.974 25.15 36.424 24.6 34.5906 24.6C32.8573 24.6 31.3906 25.1333 30.1906 26.2C29.024 27.2333 28.3073 28.6833 28.0406 30.55H41.1906ZM63.95 40.55L70.95 19.3H78.4L68.15 47H59.65L49.45 19.3H56.95L63.95 40.55ZM79.3816 33.05C79.3816 30.25 79.9316 27.7667 81.0316 25.6C82.165 23.4333 83.6816 21.7667 85.5816 20.6C87.515 19.4333 89.665 18.85 92.0316 18.85C94.0983 18.85 95.8983 19.2667 97.4316 20.1C98.9983 20.9333 100.248 21.9833 101.182 23.25V19.3H108.232V47H101.182V42.95C100.282 44.25 99.0316 45.3333 97.4316 46.2C95.865 47.0333 94.0483 47.45 91.9816 47.45C89.6483 47.45 87.515 46.85 85.5816 45.65C83.6816 44.45 82.165 42.7667 81.0316 40.6C79.9316 38.4 79.3816 35.8833 79.3816 33.05ZM101.182 33.15C101.182 31.45 100.848 30 100.182 28.8C99.515 27.5667 98.615 26.6333 97.4816 26C96.3483 25.3333 95.1316 25 93.8316 25C92.5316 25 91.3316 25.3167 90.2316 25.95C89.1316 26.5833 88.2316 27.5167 87.5316 28.75C86.865 29.95 86.5316 31.3833 86.5316 33.05C86.5316 34.7167 86.865 36.1833 87.5316 37.45C88.2316 38.6833 89.1316 39.6333 90.2316 40.3C91.365 40.9667 92.565 41.3 93.8316 41.3C95.1316 41.3 96.3483 40.9833 97.4816 40.35C98.615 39.6833 99.515 38.75 100.182 37.55C100.848 36.3167 101.182 34.85 101.182 33.15ZM130.368 31.55C128.768 31.6833 127.552 32.1167 126.718 32.85C125.918 33.5833 125.518 34.5667 125.518 35.8C125.518 37.1667 125.668 39.1667 125.968 41.8C126.302 44.9333 126.468 47.2333 126.468 48.7C126.468 51.3 125.685 53.3167 124.118 54.75C122.585 56.2167 120.535 56.95 117.968 56.95H114.518V51H116.618C117.685 51 118.468 50.7667 118.968 50.3C119.468 49.8333 119.718 49.0833 119.718 48.05C119.718 47.15 119.585 45.3 119.318 42.5C119.285 42.1 119.202 41.1333 119.068 39.6C118.935 38.0333 118.868 36.6833 118.868 35.55C118.868 33.75 119.302 32.2833 120.168 31.15C121.035 29.9833 122.352 29.2167 124.118 28.85V28.75C122.352 28.4167 121.035 27.6667 120.168 26.5C119.302 25.3333 118.868 23.8667 118.868 22.1C118.868 20.9 118.935 19.5333 119.068 18C119.202 16.4333 119.285 15.4833 119.318 15.15C119.585 12.35 119.718 10.4833 119.718 9.55C119.718 7.58333 118.685 6.6 116.618 6.6H114.518V0.699997H117.968C120.535 0.699997 122.585 1.43333 124.118 2.9C125.685 4.33333 126.468 6.35 126.468 8.95C126.468 10.3833 126.302 12.6667 125.968 15.8C125.668 18.4333 125.518 20.45 125.518 21.85C125.518 23.0833 125.918 24.0667 126.718 24.8C127.552 25.5333 128.768 25.9667 130.368 26.1V31.55Z" fill="#F20089"/>
</svg>
