<svg width="25" height="25" viewBox="0 0 25 25" fill="none" xmlns="http://www.w3.org/2000/svg">
<path d="M25 12.8128C25 15.6053 24.205 18.1166 22.615 20.3466C21.0262 22.5766 18.9725 24.1191 16.455 24.9753C16.1625 25.0316 15.9475 24.9928 15.8125 24.8591C15.7459 24.7943 15.6934 24.7164 15.6583 24.6304C15.6233 24.5443 15.6064 24.4519 15.6088 24.3591V20.8378C15.6088 19.7591 15.3263 18.9691 14.7625 18.4691C15.3257 18.4125 15.8836 18.3122 16.4313 18.1691C16.9237 18.0353 17.4338 17.8191 17.96 17.5191C18.4659 17.236 18.9135 16.8593 19.2788 16.4091C19.6313 15.9691 19.9188 15.3853 20.1413 14.6566C20.3638 13.9278 20.475 13.0916 20.475 12.1466C20.475 10.8003 20.0462 9.65406 19.19 8.70906C19.59 7.69656 19.5475 6.56281 19.0588 5.30531C18.755 5.20531 18.3162 5.26781 17.7412 5.48906C17.2197 5.68499 16.7182 5.9307 16.2437 6.22281L15.625 6.62281C14.6087 6.33307 13.5568 6.18748 12.5 6.19031C11.4432 6.18788 10.3912 6.33389 9.375 6.62406C9.14893 6.46749 8.91842 6.31743 8.68375 6.17406C8.39625 5.99531 7.9425 5.78156 7.32375 5.53156C6.70625 5.28156 6.23875 5.20656 5.92375 5.30656C5.4475 6.56281 5.40875 7.69656 5.81125 8.70906C4.95375 9.65406 4.52375 10.8003 4.52375 12.1466C4.52375 13.0916 4.63625 13.9253 4.85875 14.6491C5.08125 15.3716 5.36625 15.9553 5.7125 16.4003C6.07154 16.8552 6.51669 17.2349 7.0225 17.5178C7.54875 17.8178 8.06 18.0353 8.5525 18.1678C9.04625 18.3028 9.6025 18.4028 10.2213 18.4691C9.7875 18.8691 9.52125 19.4428 9.42375 20.1878C9.1907 20.3007 8.9447 20.3847 8.69125 20.4378C8.38582 20.4978 8.07498 20.5258 7.76375 20.5216C7.405 20.5216 7.05125 20.4016 6.6975 20.1628C6.345 19.9228 6.04375 19.5753 5.79375 19.1203C5.59846 18.7762 5.32903 18.4799 5.005 18.2528C4.685 18.0303 4.41625 17.8966 4.19875 17.8528L3.87375 17.8028C3.64625 17.8028 3.48875 17.8278 3.40125 17.8778C3.31375 17.9278 3.28875 17.9903 3.32 18.0691C3.35676 18.1539 3.40606 18.2327 3.46625 18.3028C3.52869 18.3779 3.60005 18.445 3.67875 18.5028L3.79125 18.5853C4.03125 18.6978 4.26625 18.9091 4.5 19.2203C4.73375 19.5316 4.905 19.8153 5.0125 20.0703L5.175 20.4541C5.31625 20.8766 5.555 21.2191 5.8925 21.4803C6.22875 21.7428 6.5925 21.9091 6.9825 21.9803C7.3725 22.0528 7.75 22.0928 8.11375 22.0978C8.47625 22.1028 8.77875 22.0841 9.0175 22.0391L9.39125 21.9728C9.39125 22.3953 9.39375 22.8903 9.4 23.4578L9.4075 24.3578C9.4075 24.5578 9.3375 24.7253 9.195 24.8578C9.055 24.9928 8.8375 25.0316 8.545 24.9753C6.0275 24.1191 3.97375 22.5753 2.385 20.3466C0.795 18.1166 0 15.6053 0 12.8128C0 10.4878 0.55875 8.34531 1.67625 6.38156C2.7581 4.4555 4.32719 2.84762 6.22625 1.71906C8.11937 0.57945 10.2904 -0.0153212 12.5 0.000309122C14.71 -0.0155517 16.8815 0.579227 18.775 1.71906C20.6736 2.8478 22.2422 4.45566 23.3237 6.38156C24.4412 8.34406 25 10.4891 25 12.8128Z" fill="#F20089"/>
</svg>
