<svg width="24" height="18" viewBox="0 0 24 18" fill="none" xmlns="http://www.w3.org/2000/svg">
<path d="M23.9997 1.50017V16.5C23.9997 17.3513 23.351 18 22.4998 18H20.9998V4.38689L11.9999 10.8518L2.99997 4.38689V18H1.49998C0.648743 18 0 17.3513 0 16.5V1.50017C0 1.07418 0.160498 0.699181 0.429746 0.433684C0.569973 0.293381 0.73698 0.182705 0.920836 0.108235C1.10469 0.0337647 1.30164 -0.00297885 1.49998 0.000188679H2.00023L11.9999 7.25036L21.9995 0.000188679H22.4998C22.9258 0.000188679 23.3008 0.160687 23.57 0.433684C23.8392 0.699181 23.9997 1.07418 23.9997 1.50017Z" fill="#F20089"/>
</svg>
