<svg width="19" height="18" viewBox="0 0 19 18" fill="none" xmlns="http://www.w3.org/2000/svg">
<path d="M15.7823 15.339H13.1173V11.162C13.1173 10.166 13.0973 8.884 11.7273 8.884C10.3383 8.884 10.1263 9.968 10.1263 11.089V15.339H7.46027V6.75H10.0203V7.92H10.0553C10.4133 7.246 11.2833 6.533 12.5833 6.533C15.2833 6.533 15.7833 8.311 15.7833 10.624V15.339H15.7823ZM4.45027 5.575C4.24682 5.57526 4.04533 5.53537 3.85733 5.45761C3.66933 5.37984 3.49853 5.26574 3.35472 5.12184C3.21091 4.97793 3.09692 4.80706 3.01928 4.61901C2.94163 4.43097 2.90187 4.22944 2.90227 4.026C2.90246 3.71983 2.99345 3.4206 3.16371 3.16615C3.33397 2.91169 3.57586 2.71343 3.8588 2.59645C4.14173 2.47947 4.453 2.44902 4.75325 2.50894C5.05349 2.56886 5.32922 2.71647 5.54557 2.93311C5.76192 3.14974 5.90918 3.42566 5.96872 3.72598C6.02825 4.0263 5.99739 4.33753 5.88005 4.62032C5.7627 4.9031 5.56413 5.14474 5.30946 5.31467C5.05478 5.4846 4.75543 5.5752 4.44927 5.575H4.45027ZM5.78627 15.339H3.11327V6.75H5.78727V15.339H5.78627ZM17.1173 0H1.77627C1.04027 0 0.447266 0.58 0.447266 1.297V16.703C0.447266 17.42 1.04127 18 1.77527 18H17.1133C17.8473 18 18.4473 17.42 18.4473 16.703V1.297C18.4473 0.58 17.8473 0 17.1133 0H17.1163H17.1173Z" fill="#F20089"/>
</svg>
