<svg width="17" height="18" viewBox="0 0 17 18" fill="none" xmlns="http://www.w3.org/2000/svg">
<path d="M7.40861 0.845195L1.29223 6.96157C1.02436 7.22919 0.811858 7.54697 0.666875 7.89676C0.521891 8.24654 0.447266 8.62147 0.447266 9.00012C0.447266 9.37876 0.521891 9.75369 0.666875 10.1035C0.811858 10.4533 1.02436 10.771 1.29223 11.0387L7.40861 17.155C7.67622 17.4229 7.994 17.6354 8.34379 17.7804C8.69357 17.9254 9.06851 18 9.44715 18C9.82579 18 10.2007 17.9254 10.5505 17.7804C10.9003 17.6354 11.2181 17.4229 11.4857 17.155L13.5257 15.1165L11.4857 13.078L9.44715 15.1165L3.33077 9.00012L9.44715 2.88374L13.525 6.96157L9.44715 11.0387L11.4857 13.0787L15.5635 9.00012C15.8315 8.73249 16.0441 8.41466 16.1892 8.0648C16.3342 7.71495 16.4089 7.33993 16.4089 6.9612C16.4089 6.58247 16.3342 6.20745 16.1892 5.85759C16.0441 5.50774 15.8315 5.18991 15.5635 4.92228L11.4774 0.845195C11.2107 0.57731 10.8936 0.364747 10.5445 0.219705C10.1954 0.0746635 9.82107 0 9.44302 0C9.06497 0 8.69064 0.0746635 8.34152 0.219705C7.9924 0.364747 7.67537 0.57731 7.40861 0.845195V0.845195Z" fill="#F20089"/>
</svg>
