<svg width="25" height="19" viewBox="0 0 25 19" fill="none" xmlns="http://www.w3.org/2000/svg">
<path d="M12.5 0.977539C6.81818 0.977539 1.96591 4.51163 0 9.50027C1.96591 14.4889 6.81818 18.023 12.5 18.023C18.1818 18.023 23.0341 14.4889 25 9.50027C23.0341 4.51163 18.1818 0.977539 12.5 0.977539ZM12.5 15.1821C9.36364 15.1821 6.81818 12.6366 6.81818 9.50027C6.81818 6.3639 9.36364 3.81845 12.5 3.81845C15.6364 3.81845 18.1818 6.3639 18.1818 9.50027C18.1818 12.6366 15.6364 15.1821 12.5 15.1821ZM12.5 6.09118C10.6136 6.09118 9.09091 7.6139 9.09091 9.50027C9.09091 11.3866 10.6136 12.9094 12.5 12.9094C14.3864 12.9094 15.9091 11.3866 15.9091 9.50027C15.9091 7.6139 14.3864 6.09118 12.5 6.09118Z" fill="#F20089"/>
</svg>
